<svg id="visual" viewBox="0 0 900 600" width="900" height="600" xmlns="http://www.w3.org/2000/svg" xmlns:xlink="http://www.w3.org/1999/xlink" version="1.1"><g fill="#0FC4A0"><circle r="18" cx="415" cy="347"></circle><circle r="2" cx="414" cy="387"></circle><circle r="3" cx="1" cy="409"></circle><circle r="3" cx="295" cy="127"></circle><circle r="6" cx="413" cy="128"></circle><circle r="5" cx="387" cy="80"></circle><circle r="6" cx="159" cy="144"></circle><circle r="13" cx="607" cy="78"></circle><circle r="9" cx="594" cy="243"></circle><circle r="12" cx="642" cy="560"></circle><circle r="16" cx="355" cy="273"></circle><circle r="4" cx="237" cy="52"></circle><circle r="12" cx="194" cy="455"></circle><circle r="14" cx="383" cy="456"></circle><circle r="3" cx="630" cy="263"></circle><circle r="5" cx="29" cy="113"></circle><circle r="6" cx="471" cy="139"></circle><circle r="16" cx="829" cy="52"></circle><circle r="9" cx="190" cy="56"></circle><circle r="5" cx="746" cy="593"></circle><circle r="14" cx="204" cy="92"></circle><circle r="2" cx="627" cy="307"></circle><circle r="6" cx="4" cy="298"></circle><circle r="4" cx="693" cy="146"></circle><circle r="16" cx="727" cy="202"></circle><circle r="5" cx="243" cy="228"></circle><circle r="13" cx="290" cy="360"></circle><circle r="7" cx="471" cy="94"></circle><circle r="3" cx="218" cy="302"></circle><circle r="13" cx="75" cy="374"></circle><circle r="12" cx="30" cy="567"></circle><circle r="16" cx="79" cy="96"></circle><circle r="6" cx="786" cy="131"></circle><circle r="13" cx="52" cy="70"></circle><circle r="12" cx="857" cy="316"></circle><circle r="5" cx="525" cy="46"></circle><circle r="8" cx="120" cy="30"></circle><circle r="13" cx="876" cy="169"></circle><circle r="14" cx="774" cy="273"></circle><circle r="12" cx="789" cy="550"></circle><circle r="4" cx="598" cy="161"></circle><circle r="8" cx="30" cy="348"></circle><circle r="16" cx="250" cy="285"></circle><circle r="8" cx="417" cy="522"></circle><circle r="15" cx="337" cy="83"></circle><circle r="11" cx="416" cy="580"></circle><circle r="16" cx="445" cy="265"></circle><circle r="12" cx="644" cy="397"></circle><circle r="1" cx="446" cy="330"></circle><circle r="1" cx="457" cy="559"></circle><circle r="3" cx="155" cy="459"></circle><circle r="9" cx="878" cy="475"></circle><circle r="4" cx="628" cy="497"></circle><circle r="7" cx="698" cy="285"></circle><circle r="16" cx="668" cy="36"></circle><circle r="11" cx="13" cy="169"></circle><circle r="5" cx="606" cy="41"></circle><circle r="9" cx="382" cy="511"></circle><circle r="3" cx="161" cy="366"></circle><circle r="7" cx="94" cy="332"></circle><circle r="9" cx="10" cy="516"></circle><circle r="8" cx="539" cy="510"></circle></g></svg>