<svg id="visual" viewBox="0 0 900 600" width="900" height="600" xmlns="http://www.w3.org/2000/svg" xmlns:xlink="http://www.w3.org/1999/xlink" version="1.1"><g fill="#0FC4A0"><circle r="18" cx="113" cy="315"></circle><circle r="2" cx="502" cy="374"></circle><circle r="12" cx="859" cy="4"></circle><circle r="7" cx="684" cy="185"></circle><circle r="5" cx="138" cy="4"></circle><circle r="1" cx="324" cy="419"></circle><circle r="14" cx="370" cy="426"></circle><circle r="4" cx="598" cy="536"></circle><circle r="13" cx="289" cy="138"></circle><circle r="6" cx="6" cy="277"></circle><circle r="8" cx="665" cy="443"></circle><circle r="16" cx="816" cy="471"></circle><circle r="1" cx="523" cy="236"></circle><circle r="10" cx="673" cy="576"></circle><circle r="8" cx="725" cy="191"></circle><circle r="11" cx="237" cy="154"></circle><circle r="4" cx="236" cy="343"></circle><circle r="14" cx="312" cy="326"></circle><circle r="8" cx="11" cy="359"></circle><circle r="13" cx="607" cy="290"></circle><circle r="10" cx="641" cy="518"></circle><circle r="10" cx="670" cy="317"></circle></g></svg>