<svg id="visual" viewBox="0 0 900 600" width="900" height="600" xmlns="http://www.w3.org/2000/svg" xmlns:xlink="http://www.w3.org/1999/xlink" version="1.1"><g fill="#0FC4A0"><circle r="18" cx="60" cy="455"></circle><circle r="2" cx="319" cy="230"></circle><circle r="6" cx="487" cy="310"></circle><circle r="12" cx="864" cy="16"></circle><circle r="6" cx="186" cy="78"></circle><circle r="7" cx="224" cy="273"></circle><circle r="10" cx="106" cy="9"></circle><circle r="2" cx="59" cy="169"></circle><circle r="6" cx="292" cy="424"></circle><circle r="4" cx="558" cy="394"></circle><circle r="15" cx="720" cy="493"></circle><circle r="3" cx="265" cy="523"></circle><circle r="14" cx="471" cy="274"></circle><circle r="2" cx="315" cy="461"></circle><circle r="1" cx="211" cy="471"></circle><circle r="7" cx="707" cy="43"></circle><circle r="15" cx="553" cy="318"></circle><circle r="16" cx="595" cy="414"></circle><circle r="15" cx="250" cy="578"></circle><circle r="12" cx="85" cy="336"></circle><circle r="7" cx="806" cy="534"></circle><circle r="8" cx="796" cy="388"></circle></g></svg>