<svg id="visual" viewBox="0 0 900 600" width="900" height="600" xmlns="http://www.w3.org/2000/svg" xmlns:xlink="http://www.w3.org/1999/xlink" version="1.1"><g fill="#0FC4A0"><circle r="14" cx="515" cy="9"></circle><circle r="1" cx="506" cy="304"></circle><circle r="4" cx="210" cy="104"></circle><circle r="7" cx="274" cy="559"></circle><circle r="7" cx="618" cy="307"></circle><circle r="6" cx="790" cy="357"></circle><circle r="7" cx="211" cy="493"></circle><circle r="12" cx="287" cy="490"></circle><circle r="5" cx="789" cy="436"></circle><circle r="7" cx="838" cy="560"></circle><circle r="4" cx="101" cy="584"></circle><circle r="3" cx="682" cy="131"></circle><circle r="8" cx="895" cy="320"></circle><circle r="4" cx="875" cy="560"></circle><circle r="11" cx="707" cy="100"></circle><circle r="12" cx="474" cy="517"></circle><circle r="5" cx="795" cy="491"></circle><circle r="5" cx="444" cy="566"></circle><circle r="6" cx="680" cy="22"></circle><circle r="2" cx="560" cy="380"></circle><circle r="3" cx="165" cy="238"></circle><circle r="12" cx="247" cy="378"></circle><circle r="10" cx="45" cy="537"></circle><circle r="2" cx="775" cy="2"></circle><circle r="2" cx="640" cy="527"></circle><circle r="4" cx="215" cy="182"></circle><circle r="8" cx="278" cy="150"></circle><circle r="10" cx="173" cy="188"></circle><circle r="12" cx="592" cy="31"></circle><circle r="4" cx="359" cy="161"></circle><circle r="7" cx="309" cy="158"></circle><circle r="9" cx="232" cy="544"></circle><circle r="4" cx="44" cy="220"></circle><circle r="8" cx="580" cy="258"></circle><circle r="10" cx="179" cy="297"></circle><circle r="1" cx="609" cy="144"></circle><circle r="6" cx="110" cy="547"></circle><circle r="1" cx="761" cy="344"></circle><circle r="11" cx="838" cy="418"></circle><circle r="3" cx="110" cy="219"></circle><circle r="9" cx="153" cy="590"></circle><circle r="6" cx="319" cy="38"></circle><circle r="0" cx="542" cy="229"></circle><circle r="6" cx="486" cy="135"></circle><circle r="4" cx="6" cy="248"></circle><circle r="0" cx="872" cy="295"></circle><circle r="11" cx="760" cy="404"></circle><circle r="12" cx="684" cy="569"></circle><circle r="12" cx="318" cy="302"></circle><circle r="6" cx="17" cy="499"></circle></g></svg>